<svg width="256" height="256" viewBox="0 0 256 256" fill="none" xmlns="http://www.w3.org/2000/svg">
<path fill-rule="evenodd" clip-rule="evenodd" d="M100.747 143.725V217.6H53.3707V115.501C53.3483 115.142 53.3334 114.769 53.3334 114.381V114.09C53.3931 108.273 55.7675 99.3355 64.5632 94.3477C69.0134 91.8315 92.2646 76.8832 103.965 69.3568C105.025 68.6699 106.227 68.304 107.444 68.2667H107.84C108.885 68.2965 109.931 68.5653 110.886 69.088C113.074 70.2827 114.433 72.5675 114.433 75.0389V84.8277C114.433 88.5611 111.387 91.6 107.638 91.6C104.726 91.6 102.24 89.7856 101.277 87.1723C91.0299 94.3177 75.6446 105.078 72.0274 107.609C68.7708 109.888 68.2032 112.415 68.2032 115.004C68.2032 116.568 69.1176 118.923 70.9238 120.542C72.3519 121.822 74.4566 122.574 76.2774 122.574C79.9167 122.309 79.5387 122 87.7418 116.295C94.4628 111.621 124.664 90.5512 134.548 83.648C136.549 82.3264 137.752 81.5275 137.826 81.4827C139.909 80.0939 142.597 79.9669 144.785 81.1541C147.003 82.3115 148.362 84.6187 148.362 87.1051V87.8965C148.362 90.1515 147.234 92.2645 145.345 93.5189C145.345 93.5189 116.554 112.723 114 114.343C104.226 120.615 100.747 128.284 100.747 143.725Z" fill="#FFF8F7"/>
<path d="M202.667 111.048V217.62H107.84L107.638 139.742C107.638 139.742 107.668 139.712 107.668 139.675C107.803 134.717 108.968 127.646 118.211 120.837C123.752 116.775 156.717 94.3299 158.106 93.4041C160.196 91.9854 162.907 91.851 165.102 93.0083C167.342 94.1582 168.738 96.4803 168.738 98.9891V108.77C168.738 112.504 165.692 115.55 161.951 115.55C159.136 115.55 156.717 113.863 155.679 111.451C145.277 118.723 128.844 130.203 125.285 132.695C123.421 134.06 122.649 135.841 122.401 136.362C122.079 137.166 121.878 137.891 121.796 138.641C121.735 139.202 121.691 139.767 121.745 140.434C121.805 141.486 122.151 142.727 122.68 143.792C123.201 144.761 123.801 145.577 124.344 146.065C125.485 147.092 126.713 148.016 129.005 148.51C129.368 148.589 130.062 148.677 130.895 148.648C131.272 148.635 131.905 148.593 132.613 148.426C133.326 148.257 134.116 147.962 134.602 147.699C135.41 147.262 136.098 146.762 136.098 146.762C144.137 141.137 168.199 124.359 176.277 118.691C182.682 114.198 188.496 110.172 192.453 107.395L193.818 106.423C193.818 106.423 195.758 105.051 195.815 105.051C196.864 104.654 198.112 104.711 198.821 105.007C201.181 106.127 202.667 108.479 202.667 111.048Z" fill="#FFF8F7"/>
<path d="M128.381 141.584C127.618 140.492 127.885 138.989 128.976 138.227L154.536 120.371C155.627 119.609 157.13 119.876 157.893 120.967C158.655 122.059 158.389 123.562 157.297 124.324L131.738 142.179C130.646 142.942 129.143 142.675 128.381 141.584Z" fill="#FFF8F7"/>
<path d="M74.6247 115.842C73.8622 114.751 74.1289 113.248 75.2204 112.485L100.78 94.6301C101.871 93.8676 103.374 94.1343 104.137 95.2258C104.899 96.3174 104.633 97.8204 103.541 98.5829L77.9818 116.438C76.8903 117.201 75.3872 116.934 74.6247 115.842Z" fill="#FFF8F7"/>
<path d="M154 134.262V179.008C162.624 170.638 164.004 158 164.004 158C164.004 158 167.84 164.004 174.008 164.004C174.03 159.927 174 120.285 174 120.285L154 134.262Z" fill="#FFB4AB"/>
</svg>
